<svg id="svg" version="1.1" xmlns="http://www.w3.org/2000/svg" xmlns:xlink="http://www.w3.org/1999/xlink" width="500" height="500" viewBox="0, 0, 400,400"><g id="svgg"><path id="path0" d="M199.843 126.061 C 199.154 126.222,198.025 126.623,197.335 126.952 C 196.646 127.280,195.694 127.644,195.219 127.759 C 194.082 128.034,194.109 128.822,195.300 130.097 C 196.030 130.878,196.403 131.058,196.946 130.892 C 199.880 129.999,202.236 129.477,203.351 129.472 C 204.074 129.470,204.752 129.326,204.859 129.154 C 205.094 128.773,209.091 128.730,209.091 129.109 C 209.091 129.256,210.098 129.471,211.329 129.585 C 220.370 130.425,229.784 138.088,232.671 146.957 C 233.216 148.631,233.768 150.074,233.898 150.165 C 234.346 150.476,234.838 154.708,234.752 157.512 L 234.665 160.322 236.139 160.780 C 236.950 161.031,237.720 161.130,237.851 160.999 C 238.755 160.090,237.593 147.022,236.607 147.022 C 236.453 147.022,236.405 146.896,236.500 146.741 C 236.596 146.587,236.464 146.058,236.207 145.566 C 235.951 145.073,235.740 144.553,235.739 144.409 C 235.735 143.926,233.738 140.125,233.488 140.125 C 233.353 140.125,232.953 139.560,232.601 138.870 C 231.497 136.707,225.361 130.721,224.247 130.721 C 224.120 130.721,223.655 130.383,223.215 129.970 C 222.444 129.247,217.957 127.273,217.083 127.273 C 216.850 127.273,216.473 127.087,216.245 126.860 C 215.194 125.815,203.367 125.239,199.843 126.061 M181.756 129.199 C 180.574 129.632,178.337 131.945,178.013 133.070 C 177.436 135.075,178.138 139.812,179.012 139.812 C 179.161 139.812,179.791 140.157,180.413 140.579 C 182.518 142.008,185.463 141.918,187.904 140.350 C 190.821 138.476,190.915 132.284,188.052 130.593 C 187.554 130.299,187.147 129.932,187.147 129.778 C 187.147 129.021,183.354 128.614,181.756 129.199 M204.649 137.779 C 202.644 138.194,199.897 139.813,199.121 141.036 C 198.836 141.483,198.530 141.920,198.439 142.006 C 197.536 142.867,196.775 146.161,197.036 148.083 C 198.097 155.906,207.358 159.586,212.993 154.424 C 213.673 153.801,214.343 153.292,214.481 153.292 C 214.620 153.292,214.734 153.080,214.734 152.821 C 214.734 152.563,214.852 152.351,214.997 152.351 C 215.313 152.351,215.906 150.560,216.272 148.500 C 216.567 146.833,215.971 142.898,215.300 142.090 C 212.204 138.360,208.694 136.939,204.649 137.779 M177.919 144.796 C 177.607 145.301,176.497 149.046,176.493 149.608 C 176.491 149.910,176.348 150.157,176.176 150.157 C 175.977 150.157,175.862 152.560,175.862 156.740 C 175.862 160.920,175.977 163.323,176.176 163.323 C 176.348 163.323,176.489 163.582,176.489 163.900 C 176.489 164.217,176.924 165.733,177.456 167.270 C 177.988 168.806,178.498 170.380,178.590 170.768 C 178.681 171.156,178.889 171.473,179.052 171.473 C 179.214 171.473,179.260 171.614,179.154 171.787 C 179.047 171.959,179.095 172.100,179.261 172.100 C 179.536 172.100,180.421 173.329,181.432 175.113 C 181.651 175.500,182.533 176.545,183.392 177.436 C 184.250 178.327,184.953 179.184,184.953 179.340 C 184.953 179.496,185.073 179.624,185.221 179.624 C 185.368 179.624,185.836 179.946,186.260 180.339 C 188.877 182.764,192.988 185.038,197.335 186.464 C 198.197 186.747,198.973 187.069,199.060 187.181 C 199.885 188.248,213.153 188.264,214.541 187.199 C 214.733 187.052,215.596 186.746,216.458 186.519 C 217.320 186.293,218.690 185.777,219.504 185.374 C 220.317 184.970,221.178 184.639,221.417 184.639 C 221.656 184.639,222.233 184.287,222.698 183.856 C 223.163 183.425,223.686 183.072,223.862 183.072 C 224.496 183.072,226.332 181.416,226.332 180.843 C 226.332 179.041,224.327 178.236,222.757 179.407 C 215.851 184.556,200.987 185.859,195.292 181.813 C 194.858 181.504,193.702 180.873,192.725 180.410 C 191.061 179.622,185.893 175.472,185.893 174.923 C 185.893 174.787,185.502 174.255,185.023 173.742 C 184.053 172.704,182.132 169.214,182.132 168.491 C 182.132 168.235,182.012 168.025,181.866 168.025 C 181.535 168.025,180.776 166.264,180.040 163.793 C 178.958 160.158,179.284 151.493,180.639 147.868 C 180.999 146.905,180.474 145.455,179.766 145.455 C 179.558 145.455,179.212 145.243,178.997 144.984 C 178.554 144.451,178.174 144.384,177.919 144.796 M190.799 147.866 C 189.823 148.023,189.803 148.313,190.559 151.254 C 190.737 151.944,191.048 153.248,191.251 154.154 C 191.727 156.282,192.676 156.554,192.345 154.467 C 192.229 153.734,192.024 153.096,191.890 153.049 C 191.756 153.001,191.708 152.543,191.784 152.030 C 191.864 151.486,191.779 151.097,191.581 151.097 C 191.395 151.097,191.329 150.871,191.435 150.595 C 191.541 150.319,191.448 149.982,191.228 149.847 C 190.345 149.301,191.342 148.903,193.592 148.903 C 195.457 148.903,195.925 148.808,195.925 148.433 C 195.925 148.096,195.581 147.962,194.710 147.962 C 194.042 147.962,193.090 147.908,192.594 147.842 C 192.098 147.776,191.291 147.786,190.799 147.866 M219.024 147.874 C 216.724 148.064,217.322 148.727,219.894 148.840 L 222.026 148.933 221.818 150.709 C 221.703 151.685,221.452 152.581,221.260 152.699 C 221.069 152.818,220.998 153.141,221.104 153.417 C 221.210 153.693,221.151 153.918,220.972 153.918 C 220.556 153.918,220.740 155.559,221.173 155.701 C 221.352 155.760,221.679 154.995,221.900 154.001 C 223.004 149.026,223.183 148.157,223.115 148.098 C 222.894 147.907,220.329 147.766,219.024 147.874 M193.451 150.443 C 192.932 150.771,193.018 151.637,194.171 157.680 C 194.615 160.008,194.980 162.300,194.981 162.774 C 194.983 163.248,195.090 163.647,195.219 163.661 C 196.604 163.805,205.536 163.995,207.837 163.929 C 213.171 163.777,214.868 163.808,216.271 164.086 C 217.290 164.287,217.593 164.264,217.428 163.998 C 217.305 163.799,217.340 163.636,217.505 163.636 C 217.803 163.636,217.915 163.152,219.101 156.740 C 220.003 151.867,220.115 151.411,220.415 151.411 C 220.979 151.411,220.662 150.872,219.891 150.521 C 218.389 149.836,216.928 150.043,216.928 150.940 C 216.928 151.371,216.821 151.724,216.691 151.724 C 216.561 151.724,216.257 152.169,216.017 152.712 C 213.577 158.223,203.976 159.637,199.639 155.123 C 198.975 154.432,198.433 153.772,198.433 153.655 C 198.433 153.538,198.150 153.266,197.806 153.051 C 197.461 152.835,197.179 152.449,197.179 152.192 C 197.179 151.935,197.038 151.724,196.865 151.724 C 196.693 151.724,196.552 151.371,196.552 150.940 C 196.552 150.106,194.502 149.777,193.451 150.443 M220.253 156.609 C 219.986 157.304,220.007 157.367,220.499 157.367 C 220.864 157.367,221.317 156.745,221.317 156.244 C 221.317 155.874,220.417 156.182,220.253 156.609 M190.364 160.266 C 190.537 162.885,191.442 166.458,191.933 166.458 C 192.080 166.458,192.113 166.599,192.006 166.771 C 191.900 166.944,191.962 167.085,192.145 167.085 C 192.327 167.085,192.476 167.234,192.476 167.417 C 192.476 167.912,194.407 170.219,194.821 170.219 C 195.018 170.219,195.453 170.466,195.787 170.768 C 196.122 171.070,197.171 171.578,198.119 171.897 C 200.622 172.741,202.521 173.743,203.757 174.871 C 205.183 176.173,205.594 176.123,205.835 174.614 C 206.045 173.301,206.583 173.179,206.583 174.444 C 206.583 174.851,206.669 175.407,206.773 175.680 C 207.015 176.310,208.150 176.331,208.150 175.705 C 208.150 175.447,208.292 175.235,208.464 175.235 C 208.636 175.235,209.045 174.968,209.371 174.641 C 210.181 173.832,212.846 172.525,214.910 171.924 C 215.847 171.652,216.614 171.298,216.614 171.138 C 216.614 170.977,216.815 170.846,217.061 170.846 C 217.767 170.846,219.312 169.390,219.883 168.185 C 220.171 167.580,220.540 167.085,220.704 167.085 C 220.869 167.085,221.003 166.873,221.003 166.614 C 221.003 166.356,221.121 166.144,221.265 166.144 C 221.766 166.144,222.571 162.379,222.571 160.036 C 222.571 156.665,221.095 156.878,220.376 160.352 C 219.954 162.393,218.368 165.831,217.849 165.831 C 217.671 165.831,216.735 166.336,215.771 166.953 C 213.709 168.272,212.539 168.770,212.539 168.331 C 212.539 168.163,212.751 168.025,213.009 168.025 C 213.268 168.025,213.480 167.886,213.480 167.716 C 213.480 167.546,213.973 167.200,214.577 166.948 C 215.491 166.566,215.674 166.330,215.674 165.533 C 215.674 164.299,215.430 164.325,212.934 165.831 C 211.790 166.520,210.682 167.085,210.470 167.085 C 209.768 167.085,206.583 170.570,206.583 171.339 C 206.583 171.737,206.442 172.150,206.270 172.257 C 206.097 172.364,205.956 172.139,205.956 171.755 C 205.956 169.941,203.822 167.626,201.059 166.441 C 200.268 166.102,199.275 165.552,198.850 165.219 C 198.426 164.885,197.877 164.690,197.629 164.785 C 196.784 165.109,197.177 166.022,198.589 167.018 C 200.672 168.486,200.303 168.801,198.041 167.486 C 194.289 165.306,193.090 163.749,192.499 160.291 C 192.121 158.077,191.845 157.680,190.683 157.680 C 190.266 157.680,190.219 158.060,190.364 160.266 M228.370 164.391 C 222.737 166.887,223.915 175.759,229.999 176.671 C 231.774 176.938,234.297 176.033,235.306 174.769 C 235.720 174.249,236.204 173.648,236.381 173.433 C 236.557 173.217,236.590 173.039,236.454 173.036 C 236.318 173.033,236.418 172.897,236.677 172.734 C 237.330 172.321,237.315 168.109,236.659 167.694 C 236.410 167.537,236.318 167.406,236.455 167.403 C 236.955 167.393,234.389 164.917,233.386 164.441 C 232.132 163.846,229.655 163.822,228.370 164.391 M261.755 189.969 C 261.755 190.141,262.531 190.282,263.480 190.282 C 264.428 190.282,265.204 190.141,265.204 189.969 C 265.204 189.796,264.428 189.655,263.480 189.655 C 262.531 189.655,261.755 189.796,261.755 189.969 M129.117 197.925 C 120.869 200.872,119.242 213.806,126.804 216.302 C 128.493 216.859,131.852 216.576,133.591 215.730 L 135.050 215.020 135.572 212.134 C 135.859 210.546,136.170 208.930,136.263 208.542 C 136.426 207.862,136.354 207.837,134.224 207.837 C 131.794 207.837,131.891 207.751,131.503 210.247 C 130.985 213.583,126.646 211.621,126.646 208.050 C 126.646 203.869,130.201 200.893,133.279 202.498 L 134.628 203.200 135.524 202.149 C 137.214 200.166,137.424 199.738,136.970 199.192 C 135.669 197.624,131.735 196.989,129.117 197.925 M145.672 198.110 C 139.318 200.593,136.384 209.468,140.376 214.131 C 144.368 218.795,152.149 216.729,155.226 210.188 C 158.908 202.360,153.215 195.163,145.672 198.110 M229.998 198.110 C 223.644 200.593,220.710 209.468,224.702 214.131 C 228.694 218.795,236.475 216.729,239.552 210.188 C 243.234 202.360,237.541 195.163,229.998 198.110 M249.433 198.110 C 243.080 200.593,240.146 209.468,244.137 214.131 C 248.130 218.795,255.911 216.729,258.988 210.188 C 262.670 202.360,256.977 195.163,249.433 198.110 M283.856 198.070 C 278.976 200.395,278.897 205.916,283.707 208.407 C 286.769 209.992,287.177 210.593,285.947 211.707 C 284.974 212.587,283.534 212.358,282.145 211.103 L 280.902 209.980 279.479 211.169 C 277.848 212.533,277.744 213.060,278.847 214.372 C 281.952 218.061,288.581 217.118,290.628 212.696 C 292.247 209.199,291.123 206.589,287.235 204.817 C 285.615 204.079,284.953 203.612,284.953 203.205 C 284.953 201.712,287.146 201.392,288.658 202.665 C 289.865 203.680,289.940 203.668,291.342 202.232 C 292.917 200.620,292.799 199.849,290.790 198.609 C 288.805 197.384,285.787 197.150,283.856 198.070 M160.346 198.197 C 160.088 198.942,157.053 215.081,157.053 215.710 C 157.053 216.322,157.218 216.338,162.486 216.243 L 167.919 216.144 169.103 215.240 C 171.309 213.556,172.489 209.390,171.378 207.210 C 171.030 206.528,171.071 206.263,171.692 205.172 C 173.056 202.777,172.479 199.663,170.439 198.420 C 169.204 197.667,160.596 197.477,160.346 198.197 M176.325 198.197 C 175.937 199.248,173.986 210.034,173.984 211.140 C 173.969 218.233,185.046 218.710,187.957 211.742 C 188.517 210.401,190.907 198.425,190.691 198.041 C 190.618 197.911,189.589 197.806,188.405 197.806 L 186.251 197.806 185.925 199.451 C 183.607 211.149,183.792 210.450,182.771 211.364 C 181.470 212.529,179.851 212.551,179.106 211.414 C 178.597 210.637,178.624 210.344,179.727 204.596 C 180.360 201.292,180.879 198.413,180.878 198.197 C 180.878 197.921,180.228 197.806,178.674 197.806 C 177.196 197.806,176.422 197.935,176.325 198.197 M192.476 198.184 C 192.476 198.407,193.207 200.888,194.102 203.697 L 195.728 208.804 195.175 211.691 C 194.871 213.278,194.545 214.965,194.451 215.439 L 194.279 216.301 196.607 216.301 L 198.936 216.301 199.655 212.570 L 200.374 208.838 204.105 203.628 C 208.550 197.421,208.474 197.805,205.251 197.808 L 202.665 197.810 200.795 200.771 C 199.767 202.400,198.851 203.660,198.758 203.571 C 198.665 203.482,198.237 202.183,197.806 200.686 L 197.022 197.962 194.749 197.870 C 193.052 197.801,192.476 197.881,192.476 198.184 M209.876 198.197 C 209.617 198.942,206.583 215.081,206.583 215.710 C 206.583 216.322,206.747 216.338,212.016 216.243 L 217.449 216.144 218.633 215.240 C 220.839 213.556,222.019 209.390,220.908 207.210 C 220.560 206.528,220.601 206.263,221.222 205.172 C 222.586 202.777,222.009 199.663,219.969 198.420 C 218.734 197.667,210.126 197.477,209.876 198.197 M264.102 198.197 C 263.762 199.138,260.626 216.007,260.765 216.147 C 260.850 216.231,261.874 216.301,263.041 216.301 C 265.399 216.301,265.315 216.383,265.694 213.699 C 265.842 212.652,266.230 211.808,266.968 210.923 L 268.030 209.653 268.454 210.704 C 268.687 211.282,269.273 212.778,269.755 214.028 L 270.632 216.301 273.090 216.301 C 274.442 216.301,275.549 216.177,275.549 216.025 C 275.549 215.874,274.643 213.552,273.537 210.866 L 271.526 205.983 275.103 202.130 C 279.375 197.528,279.313 197.806,276.059 197.806 L 273.434 197.806 272.081 199.295 C 271.338 200.114,270.001 201.579,269.112 202.552 L 267.495 204.320 268.061 201.612 C 268.908 197.560,269.012 197.806,266.448 197.806 C 264.969 197.806,264.197 197.935,264.102 198.197 M167.532 202.060 C 168.224 202.751,168.147 203.355,167.256 204.246 C 166.272 205.229,163.480 205.406,163.755 204.467 C 163.844 204.165,164.010 203.389,164.125 202.743 C 164.361 201.410,166.461 200.989,167.532 202.060 M217.062 202.060 C 217.753 202.751,217.677 203.355,216.785 204.246 C 215.802 205.229,213.009 205.406,213.285 204.467 C 213.374 204.165,213.540 203.389,213.655 202.743 C 213.891 201.410,215.991 200.989,217.062 202.060 M149.854 202.670 C 152.455 204.015,152.235 208.103,149.429 210.567 C 145.926 213.642,141.907 210.429,143.747 206.024 C 144.979 203.075,147.722 201.568,149.854 202.670 M234.180 202.670 C 236.781 204.015,236.561 208.103,233.755 210.567 C 230.253 213.642,226.233 210.429,228.073 206.024 C 229.305 203.075,232.048 201.568,234.180 202.670 M253.615 202.670 C 256.217 204.015,255.997 208.103,253.191 210.567 C 249.688 213.642,245.669 210.429,247.509 206.024 C 248.741 203.075,251.484 201.568,253.615 202.670 M166.708 208.840 C 168.160 210.292,166.437 212.539,163.872 212.539 L 162.311 212.539 162.521 211.050 C 162.889 208.449,162.876 208.464,164.692 208.464 C 165.594 208.464,166.502 208.633,166.708 208.840 M216.238 208.840 C 217.690 210.292,215.967 212.539,213.402 212.539 L 211.841 212.539 212.051 211.050 C 212.418 208.449,212.406 208.464,214.222 208.464 C 215.124 208.464,216.031 208.633,216.238 208.840 M121.371 226.881 C 121.179 228.045,120.927 229.467,120.811 230.041 C 120.609 231.046,120.635 231.081,121.508 230.981 C 122.232 230.899,122.434 230.705,122.513 230.016 C 122.596 229.290,122.760 229.154,123.546 229.154 C 125.366 229.154,126.577 227.021,125.694 225.371 C 125.431 224.878,125.028 224.765,123.546 224.765 L 121.722 224.765 121.371 226.881 M126.821 225.157 C 126.755 225.372,126.538 226.466,126.338 227.586 C 126.137 228.707,125.898 229.941,125.806 230.329 C 125.659 230.945,125.760 231.034,126.612 231.034 C 127.436 231.034,127.586 230.916,127.586 230.269 C 127.586 229.106,128.187 228.984,128.565 230.071 C 129.118 231.655,130.800 231.503,130.360 229.909 C 130.118 229.032,130.150 228.668,130.505 228.263 C 132.093 226.450,131.208 224.765,128.666 224.765 C 127.557 224.765,126.897 224.905,126.821 225.157 M132.983 225.254 C 130.350 227.098,131.033 231.034,133.986 231.034 C 136.623 231.034,138.462 227.177,136.677 225.392 C 135.911 224.625,133.983 224.554,132.983 225.254 M137.618 224.940 C 137.618 225.258,138.265 229.610,138.419 230.329 C 138.819 232.194,143.260 227.192,143.260 224.877 C 143.260 223.967,141.271 224.970,140.686 226.176 C 140.309 226.951,139.888 227.586,139.749 227.586 C 139.611 227.586,139.498 226.951,139.498 226.176 C 139.498 224.817,139.464 224.765,138.558 224.765 C 138.041 224.765,137.618 224.844,137.618 224.940 M143.135 227.508 C 142.491 231.020,142.492 231.034,143.396 231.034 C 144.248 231.034,144.323 230.869,144.828 227.900 C 145.018 226.779,145.246 225.615,145.335 225.313 C 145.463 224.878,145.305 224.765,144.568 224.765 C 143.647 224.765,143.634 224.790,143.135 227.508 M145.823 226.881 C 145.630 228.045,145.380 229.455,145.268 230.016 L 145.063 231.034 146.857 231.034 C 149.283 231.034,150.784 229.690,150.784 227.515 C 150.784 225.579,149.887 224.765,147.753 224.765 L 146.173 224.765 145.823 226.881 M151.599 227.508 C 150.955 231.020,150.956 231.034,151.860 231.034 C 152.712 231.034,152.787 230.869,153.292 227.900 C 153.482 226.779,153.710 225.615,153.799 225.313 C 153.927 224.878,153.769 224.765,153.032 224.765 C 152.111 224.765,152.098 224.790,151.599 227.508 M154.720 225.157 C 154.655 225.372,154.437 226.466,154.237 227.586 C 154.037 228.707,153.795 229.952,153.699 230.354 C 153.544 231.004,153.623 231.073,154.425 230.981 C 155.237 230.888,155.355 230.723,155.613 229.310 L 155.899 227.743 156.423 229.310 C 156.883 230.687,157.062 230.889,157.898 230.973 L 158.848 231.068 159.362 228.263 C 160.014 224.698,160.019 224.765,159.095 224.765 C 158.427 224.765,158.286 224.946,158.114 226.019 C 158.004 226.708,157.796 227.273,157.653 227.273 C 157.509 227.273,157.223 226.708,157.016 226.019 C 156.632 224.737,155.031 224.135,154.720 225.157 M161.790 225.202 C 159.157 226.662,159.779 231.041,162.618 231.030 C 164.169 231.023,164.571 230.726,164.880 229.356 C 165.131 228.245,165.112 228.213,164.230 228.213 C 163.521 228.213,163.323 228.355,163.323 228.863 C 163.323 229.298,163.153 229.480,162.808 229.412 C 161.112 229.078,161.747 226.489,163.524 226.489 C 164.049 226.489,164.714 226.294,165.002 226.056 C 166.267 225.007,163.479 224.266,161.790 225.202 M168.222 227.553 C 167.941 229.086,167.712 230.503,167.712 230.703 C 167.712 231.484,171.617 230.969,171.730 230.172 C 171.818 229.552,171.693 229.467,170.690 229.467 C 169.752 229.467,169.579 229.370,169.711 228.918 C 169.800 228.617,169.963 227.806,170.073 227.116 C 170.184 226.426,170.342 225.615,170.425 225.313 C 170.543 224.881,170.380 224.765,169.653 224.765 C 168.741 224.765,168.727 224.792,168.222 227.553 M173.216 225.157 C 173.150 225.372,172.933 226.466,172.733 227.586 C 172.532 228.707,172.293 229.941,172.201 230.329 C 172.055 230.938,172.158 231.034,172.946 231.034 C 173.805 231.034,174.922 227.696,174.922 225.130 C 174.922 224.637,173.366 224.662,173.216 225.157 M175.549 225.549 C 175.549 226.123,175.716 226.332,176.176 226.332 C 176.520 226.332,176.802 226.368,176.802 226.411 C 176.802 226.454,176.607 227.512,176.368 228.762 L 175.935 231.034 176.818 231.034 C 177.673 231.034,177.715 230.959,178.095 228.699 C 178.456 226.546,178.550 226.355,179.291 226.269 C 179.849 226.204,180.125 225.960,180.194 225.470 C 180.291 224.792,180.203 224.765,177.921 224.765 C 175.599 224.765,175.549 224.782,175.549 225.549 M180.450 227.351 C 179.677 231.245,179.581 231.034,182.132 231.034 C 184.263 231.034,184.326 231.012,184.326 230.251 C 184.326 229.545,184.201 229.467,183.072 229.467 C 182.382 229.467,181.818 229.326,181.818 229.154 C 181.818 228.981,182.312 228.840,182.915 228.840 C 183.519 228.840,184.013 228.711,184.013 228.552 C 184.013 228.394,184.098 228.041,184.203 227.769 C 184.354 227.373,184.166 227.273,183.272 227.273 C 182.405 227.273,182.192 227.166,182.332 226.803 C 182.448 226.499,182.933 226.332,183.699 226.332 C 184.816 226.332,185.266 225.964,185.266 225.053 C 185.266 224.894,184.298 224.765,183.115 224.765 L 180.964 224.765 180.450 227.351 M186.068 225.157 C 186.003 225.372,185.785 226.466,185.585 227.586 C 185.385 228.707,185.146 229.941,185.053 230.329 C 184.906 230.945,185.008 231.034,185.859 231.034 C 186.684 231.034,186.834 230.916,186.834 230.269 C 186.834 229.106,187.434 228.984,187.813 230.071 C 188.201 231.184,191.260 231.578,191.649 230.564 C 191.755 230.289,192.225 230.094,192.780 230.094 C 193.416 230.094,193.730 230.250,193.730 230.564 C 193.730 230.857,194.026 231.034,194.514 231.034 C 195.124 231.034,195.293 230.878,195.278 230.329 C 195.107 224.204,193.696 223.223,191.366 227.610 C 189.916 230.343,189.824 230.445,189.558 229.646 C 189.353 229.030,189.402 228.661,189.743 228.273 C 191.341 226.451,190.462 224.765,187.914 224.765 C 186.805 224.765,186.145 224.905,186.068 225.157 M197.527 225.202 C 195.904 226.101,195.327 229.183,196.552 230.408 C 197.254 231.109,199.323 231.272,199.923 230.673 C 200.583 230.013,199.813 229.144,198.755 229.356 C 197.956 229.515,197.809 229.432,197.629 228.717 C 197.309 227.439,198.247 226.217,199.375 226.442 C 200.367 226.641,201.126 226.013,200.829 225.239 C 200.600 224.643,198.577 224.620,197.527 225.202 M201.567 225.175 C 201.567 225.423,201.783 226.238,202.047 226.986 C 202.361 227.876,202.457 228.809,202.325 229.690 C 202.133 230.970,202.161 231.034,202.909 231.034 C 203.688 231.034,204.075 230.530,204.075 229.516 C 204.075 229.227,204.713 228.039,205.492 226.878 L 206.910 224.765 205.859 224.765 C 205.059 224.765,204.708 224.952,204.389 225.549 C 203.869 226.521,203.522 226.548,203.392 225.627 C 203.274 224.800,201.567 224.377,201.567 225.175 M210.866 225.470 C 210.628 225.858,209.854 227.269,209.148 228.605 L 207.863 231.034 208.800 231.034 C 209.344 231.034,209.813 230.837,209.918 230.564 C 210.019 230.302,210.485 230.094,210.972 230.094 C 211.459 230.094,211.925 230.302,212.026 230.564 C 212.384 231.499,213.865 231.149,213.678 230.172 C 213.588 229.698,213.352 228.288,213.155 227.038 C 212.759 224.531,211.833 223.897,210.866 225.470 M214.316 224.974 C 213.829 225.460,214.125 226.332,214.776 226.332 C 215.481 226.332,215.495 226.926,214.863 230.016 C 214.672 230.954,214.719 231.034,215.457 231.034 C 216.328 231.034,216.370 230.951,216.929 228.135 C 217.246 226.533,217.371 226.332,218.047 226.332 C 218.466 226.332,218.809 226.203,218.809 226.044 C 218.809 225.886,218.894 225.533,218.999 225.261 C 219.197 224.745,214.813 224.476,214.316 224.974 M221.630 225.175 C 221.630 225.423,221.846 226.238,222.110 226.986 C 222.424 227.876,222.520 228.809,222.388 229.690 C 222.196 230.970,222.224 231.034,222.972 231.034 C 223.751 231.034,224.138 230.530,224.138 229.516 C 224.138 229.227,224.776 228.039,225.555 226.878 L 226.972 224.765 225.922 224.765 C 225.122 224.765,224.771 224.952,224.451 225.549 C 223.931 226.521,223.585 226.548,223.454 225.627 C 223.337 224.800,221.630 224.377,221.630 225.175 M227.654 225.254 C 225.021 227.098,225.704 231.034,228.657 231.034 C 231.293 231.034,233.133 227.177,231.348 225.392 C 230.582 224.625,228.654 224.554,227.654 225.254 M233.102 225.541 C 232.147 229.346,232.633 231.034,234.682 231.034 C 236.717 231.034,237.235 230.390,237.911 227.022 C 238.368 224.748,238.358 224.710,237.383 224.822 C 236.594 224.913,236.494 225.081,236.183 226.823 C 235.800 228.977,235.572 229.467,234.953 229.467 C 234.128 229.467,234.129 229.136,234.961 225.470 C 235.211 224.373,233.378 224.443,233.102 225.541 M239.046 225.157 C 238.981 225.372,238.763 226.466,238.563 227.586 C 238.363 228.707,238.124 229.941,238.031 230.329 C 237.884 230.945,237.986 231.034,238.837 231.034 C 239.662 231.034,239.812 230.916,239.812 230.269 C 239.812 229.106,240.412 228.984,240.791 230.071 C 241.343 231.655,243.025 231.503,242.585 229.909 C 242.343 229.032,242.375 228.668,242.730 228.263 C 244.319 226.450,243.433 224.765,240.892 224.765 C 239.783 224.765,239.123 224.905,239.046 225.157 M246.417 226.411 C 246.232 227.316,245.958 228.726,245.808 229.545 L 245.535 231.034 247.334 231.034 C 249.460 231.034,250.546 230.355,251.099 228.677 C 251.884 226.299,250.758 224.765,248.228 224.765 L 246.753 224.765 246.417 226.411 M253.359 225.254 C 250.726 227.098,251.409 231.034,254.362 231.034 C 256.999 231.034,258.839 227.177,257.053 225.392 C 256.287 224.625,254.360 224.554,253.359 225.254 M259.606 225.559 C 257.136 227.637,257.839 231.034,260.739 231.034 C 263.447 231.034,265.234 227.651,263.614 225.591 C 262.725 224.462,260.927 224.447,259.606 225.559 M265.379 225.157 C 265.313 225.372,265.096 226.466,264.896 227.586 C 264.695 228.707,264.456 229.941,264.364 230.329 C 264.217 230.945,264.318 231.034,265.170 231.034 C 265.994 231.034,266.144 230.916,266.144 230.269 C 266.144 229.106,266.745 228.984,267.123 230.071 C 267.676 231.655,269.358 231.503,268.918 229.909 C 268.676 229.032,268.708 228.668,269.063 228.263 C 270.651 226.450,269.766 224.765,267.224 224.765 C 266.115 224.765,265.455 224.905,265.379 225.157 M270.846 225.392 C 269.847 226.392,270.035 227.499,271.337 228.266 C 272.142 228.742,272.358 229.021,272.112 229.267 C 271.866 229.513,271.592 229.496,271.127 229.206 C 270.631 228.896,270.382 228.889,270.038 229.174 C 268.482 230.465,271.549 231.762,273.284 230.546 C 274.383 229.777,274.251 228.024,273.043 227.337 C 271.856 226.661,271.829 226.223,272.991 226.478 C 273.618 226.616,274.009 226.520,274.311 226.156 C 275.334 224.923,272.041 224.197,270.846 225.392 M275.235 225.549 C 275.235 226.123,275.402 226.332,275.862 226.332 C 276.207 226.332,276.489 226.368,276.489 226.411 C 276.488 226.454,276.293 227.512,276.055 228.762 L 275.621 231.034 276.505 231.034 C 277.360 231.034,277.401 230.959,277.781 228.699 C 278.143 226.546,278.237 226.355,278.977 226.269 C 279.535 226.204,279.811 225.960,279.881 225.470 C 279.977 224.792,279.889 224.765,277.608 224.765 C 275.286 224.765,275.235 224.782,275.235 225.549 M280.137 227.351 C 279.364 231.245,279.267 231.034,281.818 231.034 C 283.950 231.034,284.013 231.012,284.013 230.251 C 284.013 229.545,283.887 229.467,282.759 229.467 C 282.069 229.467,281.505 229.326,281.505 229.154 C 281.505 228.981,281.998 228.840,282.602 228.840 C 283.205 228.840,283.699 228.711,283.699 228.552 C 283.699 228.394,283.785 228.041,283.889 227.769 C 284.041 227.373,283.852 227.273,282.959 227.273 C 282.091 227.273,281.879 227.166,282.018 226.803 C 282.135 226.499,282.620 226.332,283.386 226.332 C 284.502 226.332,284.953 225.964,284.953 225.053 C 284.953 224.894,283.985 224.765,282.802 224.765 L 280.650 224.765 280.137 227.351 M285.580 224.901 C 285.580 225.055,284.728 229.250,284.478 230.329 C 284.337 230.938,284.440 231.034,285.236 231.034 C 286.005 231.034,286.191 230.879,286.364 230.094 C 286.522 229.372,286.743 229.154,287.312 229.154 C 289.089 229.154,290.442 226.561,289.351 225.246 C 288.991 224.812,285.580 224.500,285.580 224.901 M124.240 226.539 C 124.477 226.776,123.884 227.586,123.473 227.586 C 123.321 227.586,123.197 227.304,123.197 226.959 C 123.197 226.357,123.811 226.109,124.240 226.539 M129.408 226.877 C 129.251 227.694,128.213 227.786,128.213 226.982 C 128.213 226.534,128.414 226.332,128.863 226.332 C 129.312 226.332,129.481 226.501,129.408 226.877 M135.609 227.118 C 135.855 228.099,135.019 229.467,134.173 229.467 C 133.294 229.467,132.797 228.395,133.265 227.508 C 134.004 226.105,135.300 225.889,135.609 227.118 M148.990 226.984 C 149.427 227.676,148.612 229.284,147.763 229.405 C 147.143 229.494,147.117 229.413,147.361 228.151 C 147.504 227.410,147.628 226.686,147.635 226.544 C 147.657 226.125,148.653 226.447,148.990 226.984 M188.656 226.877 C 188.498 227.694,187.461 227.786,187.461 226.982 C 187.461 226.534,187.662 226.332,188.111 226.332 C 188.559 226.332,188.728 226.501,188.656 226.877 M230.279 227.118 C 230.526 228.099,229.689 229.467,228.844 229.467 C 227.965 229.467,227.468 228.395,227.936 227.508 C 228.675 226.105,229.971 225.889,230.279 227.118 M241.634 226.877 C 241.476 227.694,240.439 227.786,240.439 226.982 C 240.439 226.534,240.640 226.332,241.089 226.332 C 241.537 226.332,241.706 226.501,241.634 226.877 M249.475 227.381 C 249.584 228.333,248.805 229.467,248.043 229.467 C 247.617 229.467,247.720 227.332,248.185 226.550 C 248.520 225.984,249.378 226.537,249.475 227.381 M255.985 227.118 C 256.231 228.099,255.395 229.467,254.549 229.467 C 253.671 229.467,253.174 228.395,253.641 227.508 C 254.380 226.105,255.676 225.889,255.985 227.118 M262.328 227.379 C 262.526 229.111,260.408 230.298,260.003 228.681 C 259.732 227.601,260.630 226.262,261.540 226.391 C 262.030 226.461,262.255 226.742,262.328 227.379 M267.966 226.877 C 267.809 227.694,266.771 227.786,266.771 226.982 C 266.771 226.534,266.972 226.332,267.421 226.332 C 267.870 226.332,268.039 226.501,267.966 226.877 M288.088 226.812 C 288.088 227.313,287.255 227.798,286.938 227.482 C 286.838 227.382,286.840 227.082,286.942 226.816 C 287.182 226.190,288.088 226.187,288.088 226.812 M193.288 228.447 C 192.951 228.784,192.772 228.312,193.008 227.709 C 193.230 227.145,193.247 227.144,193.357 227.689 C 193.420 228.004,193.389 228.345,193.288 228.447 M114.002 229.676 C 113.469 230.209,113.818 231.034,114.577 231.034 C 115.204 231.034,115.361 230.878,115.361 230.251 C 115.361 229.492,114.535 229.143,114.002 229.676 M116.196 229.676 C 115.663 230.209,116.012 231.034,116.771 231.034 C 117.398 231.034,117.555 230.878,117.555 230.251 C 117.555 229.492,116.730 229.143,116.196 229.676 M118.495 229.755 C 118.495 229.913,118.410 230.266,118.305 230.539 C 118.163 230.909,118.313 231.034,118.898 231.034 C 119.606 231.034,120.063 230.533,120.063 229.755 C 120.063 229.597,119.710 229.467,119.279 229.467 C 118.848 229.467,118.495 229.597,118.495 229.755 M288.610 229.676 C 288.077 230.209,288.426 231.034,289.185 231.034 C 289.812 231.034,289.969 230.878,289.969 230.251 C 289.969 229.492,289.144 229.143,288.610 229.676 " stroke="none" fill="#04a4fc" fill-rule="evenodd"></path><path id="path1" d="" stroke="none" fill="#08a4fc" fill-rule="evenodd"></path><path id="path2" d="" stroke="none" fill="#08a4fc" fill-rule="evenodd"></path><path id="path3" d="" stroke="none" fill="#08a4fc" fill-rule="evenodd"></path><path id="path4" d="" stroke="none" fill="#08a4fc" fill-rule="evenodd"></path></g></svg>